<svg xmlns="http://www.w3.org/2000/svg" viewBox="0 0 900 900"><g fill="none" fill-rule="evenodd"><path d="M329.46 0h241.08C685.1 0 726.644 11.928 768.526 34.327c41.881 22.398 74.75 55.267 97.148 97.148C888.072 173.357 900 214.9 900 329.46v239.082c0 114.56-11.928 156.102-34.327 197.984-22.398 41.881-55.267 74.75-97.148 97.148C726.643 886.072 685.1 898 570.54 898H329.459c-114.56 0-156.102-11.928-197.984-34.327-41.881-22.398-74.75-55.267-97.148-97.148C11.928 724.643 0 683.1 0 568.54V329.459C0 214.9 11.928 173.357 34.327 131.475c22.398-41.881 55.267-74.75 97.148-97.148C173.357 11.928 214.9 0 329.46 0z" fill="#0655C1"/><path d="M429.184 134h41.632c73.43 0 121.827 11.928 163.709 34.327 41.881 22.398 74.75 55.267 97.148 97.148C754.072 307.357 766 355.755 766 429.185v39.63c0 73.43-11.928 121.828-34.327 163.71-22.398 41.881-55.267 74.75-97.148 97.148C592.643 752.072 544.245 764 470.815 764h-41.63c-73.43 0-121.828-11.928-163.71-34.327-41.881-22.398-74.75-55.267-97.148-97.148C145.928 590.643 134 542.245 134 468.815v-39.63c0-73.43 11.928-121.828 34.327-163.71 22.398-41.881 55.267-74.75 97.148-97.148C307.357 145.928 355.755 134 429.185 134z" fill="#FFF"/><path d="M437.037 204h25.926c55.667 0 94.756 9.515 128.164 27.381 33.407 17.867 59.625 44.085 77.492 77.492C686.485 342.281 696 381.37 696 437.037v23.926c0 55.667-9.515 94.756-27.381 128.164-17.867 33.407-44.085 59.625-77.492 77.492C557.719 684.485 518.63 694 462.963 694h-25.926c-55.667 0-94.756-9.515-128.164-27.381-33.407-17.867-59.625-44.085-77.492-77.492C213.515 555.719 204 516.63 204 460.963v-23.926c0-55.667 9.515-94.756 27.381-128.164 17.867-33.407 44.085-59.625 77.492-77.492C342.281 213.515 381.37 204 437.037 204z" stroke="#CADBEB" stroke-width="10" stroke-linecap="round" stroke-linejoin="round"/><g transform="translate(576 544)"><ellipse fill="#D4DCEF" cx="117.6" cy="71" rx="39.6" ry="24"/><g transform="translate(1 23)"><path d="M10.475 98.813L82.5 189.421V224.3l42.161-20C137.082 124.606 134.53 74.664 117 54.475c-17.529-20.19-53.037-5.41-106.525 44.337z" fill="#3FCBFF"/><path d="M223.986 98.813l-72.025 90.609V224.3l-34.16-20c-17.755-79.694-17.868-129.636-.34-149.825 17.529-20.19 53.037-5.41 106.525 44.337z" fill="#3FCBFF"/><ellipse fill="#28AFE1" cx="117" cy="70.2" rx="117" ry="70.2"/><ellipse fill="#3FCBFF" cx="117" cy="224.3" rx="34.5" ry="21"/></g></g><path d="M450.5 321c71.52 0 129.5 58.278 129.5 130.168 0 65.534-48.18 119.756-110.878 128.832v-96.9h28.982l3.22-36.326h-32.203v-20.988c0-8.073 5.636-9.687 8.856-9.687h22.543V380.58h-31.4c-35.423 0-42.67 26.64-42.67 42.784v23.41h-20.126V483.1h20.127l-.002 95.995C366.42 567.764 321 514.797 321 451.168 321 379.278 378.98 321 450.5 321z" fill="#1A76F2"/><g transform="translate(597 191)"><ellipse fill="#00B300" cx="97.5" cy="99" rx="97.5" ry="58.5"/><path fill="#00B300" d="M0 58.5h57V105H0zm138 0h57V105h-57z"/><ellipse fill="#00C900" cx="97.5" cy="58.5" rx="97.5" ry="58.5"/></g><g transform="translate(597 128)"><ellipse fill="#00B300" cx="97.5" cy="99" rx="97.5" ry="58.5"/><path fill="#00B300" d="M0 58.5h57V105H0zm138 0h57V105h-57z"/><ellipse fill="#00C900" cx="97.5" cy="58.5" rx="97.5" ry="58.5"/></g><g transform="translate(597 62)"><ellipse fill="#00B300" cx="97.5" cy="99" rx="97.5" ry="58.5"/><path fill="#00B300" d="M0 58.5h57V105H0zm138 0h57V105h-57z"/><ellipse fill="#00C900" cx="97.5" cy="58.5" rx="97.5" ry="58.5"/></g><path fill="#BE76FF" fill-rule="nonzero" d="M154.625 178.488l178.2-59.4-59.4 178.2-41.456-41.663-59.4 59.4-35.682-35.681 59.4-59.4z"/><path fill="#BE76FF" d="M273.258 129.428l22.856-32.417 36.817 22.077-35.294 29.387zM136.887 291.237l33.827-29.226 28.255 19.534-26.732 33.03zm100.1-17.599l9.42-36.772 30.063 23.972-4.133 36.137z"/><path fill="#CB91FF" fill-rule="nonzero" d="M118.738 155.8l178.2-59.4-59.4 178.2-41.457-41.662-59.4 59.4L101 256.656l59.4-59.4z"/><g transform="matrix(-1 0 0 1 322.6 557)"><ellipse fill="#FFB500" transform="rotate(90 98.34 128.7)" cx="98.34" cy="128.7" rx="128.7" ry="98.34"/><path fill="#FFB500" d="M95.04 0h44.88v13.2H95.04zm0 244.2h44.88v13.2H95.04z"/><ellipse fill="#FFCB00" transform="rotate(90 128.26 128.7)" cx="128.26" cy="128.7" rx="128.7" ry="98.34"/><ellipse fill="#FFDB6C" transform="rotate(90 127.6 128.7)" cx="127.6" cy="128.7" rx="101.64" ry="77.22"/></g><g fill-rule="nonzero"><path d="M208.214 739.6v-12.72c15.876-1.687 26.386-11.42 26.386-27.255v-.26c0-16.094-8.944-23.492-26.721-28.294v-15.056c5.031 1.428 10.398 4.024 14.982 7.788l9.168-17.392c-6.709-5.321-14.423-8.956-23.591-10.124V628.5H196.81v7.398c-17.105 1.428-26.72 12.07-26.72 27.386v.26c0 16.093 9.167 23.232 27.168 28.034v15.575c-6.932-1.298-13.64-4.803-20.796-10.643L166.4 713.772c8.385 7.008 19.23 11.551 30.187 12.849V739.6h11.627zm-10.844-70.735c-6.038-1.947-7.603-3.894-7.603-7.269v-.26c0-3.374 2.124-5.97 7.603-6.489v14.018zm10.397 39.066v-14.277c5.814 1.947 7.491 3.894 7.491 7.398v.26c0 3.764-2.348 5.97-7.49 6.62z" fill="#FFCB00"/><path d="M200.514 738.5v-12.72c15.876-1.687 26.386-11.42 26.386-27.255v-.26c0-16.094-8.944-23.492-26.721-28.294v-15.056c5.031 1.428 10.398 4.024 14.982 7.788l9.168-17.392c-6.709-5.321-14.423-8.956-23.591-10.124V627.4H189.11v7.398c-17.105 1.428-26.72 12.07-26.72 27.386v.26c0 16.093 9.167 23.232 27.168 28.034v15.575c-6.932-1.298-13.64-4.803-20.796-10.643L158.7 712.672c8.385 7.008 19.23 11.551 30.187 12.849V738.5h11.627zm-10.844-70.735c-6.038-1.947-7.603-3.894-7.603-7.269v-.26c0-3.374 2.124-5.97 7.603-6.489v14.018zm10.397 39.066v-14.277c5.814 1.947 7.491 3.894 7.491 7.398v.26c0 3.764-2.348 5.97-7.49 6.62z" fill="#FFB500"/></g><g fill="#FFF" stroke-width="10"><path d="M473.61 208.306l-34.312 25.229a1 1 0 01-1.592-.806v-50.458a1 1 0 011.592-.806l34.312 25.23a1 1 0 010 1.61z" stroke="#CB91FF"/><path d="M422.802 695.306l34.311 25.229a1 1 0 001.593-.806v-50.458a1 1 0 00-1.593-.806l-34.311 25.23a1 1 0 000 1.61z" stroke="#3FCBFF"/></g><g fill="#FFF" stroke-width="10"><path d="M694.694 487.61l-25.229-34.312a1 1 0 01.806-1.592h50.458a1 1 0 01.806 1.592l-25.23 34.312a1 1 0 01-1.61 0z" stroke="#00C900"/><path d="M204.694 428.802l-25.229 34.311a1 1 0 00.806 1.593h50.458a1 1 0 00.806-1.593l-25.23-34.311a1 1 0 00-1.61 0z" stroke="#FFCB00"/></g></g></svg>